<?xml version="1.0"?>
<svg width="282.25507" height="270.0687" xmlns="http://www.w3.org/2000/svg" xmlns:svg="http://www.w3.org/2000/svg">

 <metadata id="metadata8520">image/svg+xml</metadata>
 <g>
  <title>Layer 1</title>
  <g id="svg_3">
   <path fill="#eaeaea" fill-rule="evenodd" stroke-width="1px" id="path3848" d="m141.619282,149.242161l-0.32765,-142.52751l-31.782,98.95014l32.10965,43.57737z"/>
   <path fill="#cfcfcf" fill-rule="evenodd" stroke-width="1px" id="path3850" d="m141.291632,7.697601l31.45435,97.63954l-31.1267,43.57738l-0.32765,-141.21692z"/>
   <path fill="#919191" fill-rule="evenodd" stroke-width="1px" id="path3852" d="m141.619282,148.586871l134.66393,-43.24973l-103.86488,0l-30.79905,43.24973z"/>
   <path fill="#cfcfcf" fill-rule="evenodd" stroke-width="1px" id="path3854" d="m141.619282,148.259221l51.44096,17.69307l82.8953,-60.61515l-134.33626,42.92208z"/>
   <path fill="#919191" fill-rule="evenodd" stroke-width="1px" id="path3856" d="m90.178312,165.952291l51.76862,-17.36542l-135.64688,-43.24973l83.87826,60.61515z"/>
   <path fill="#eaeaea" fill-rule="evenodd" stroke-width="1px" id="path3858" d="m141.291632,148.259221l-83.22297,116.97084l32.4373,-99.27777l50.78567,-17.69307z"/>
   <path fill="#cfcfcf" fill-rule="evenodd" stroke-width="1px" id="path3860" d="m141.619282,148.259221l0,55.70041l-83.22297,60.94279l83.22297,-116.6432z"/>
   <path fill="#cfcfcf" fill-rule="evenodd" stroke-width="1px" id="path3862" d="m141.291632,148.259221l51.44096,17.36542l32.10965,98.29485l-83.55061,-115.66027z"/>
   <path fill="#919191" fill-rule="evenodd" stroke-width="1px" id="path3864" d="m141.291632,203.959631l82.89531,59.30454l-83.55061,-115.66025l0.6553,56.35571z"/>
   <path fill="#b9b9b9" fill-rule="evenodd" stroke-width="1px" id="path3882" d="m109.181402,105.664211l32.43725,43.57723l-135.64651,-43.90487l103.20926,0.32764z"/>
  </g>
 </g>
</svg>